<?xml version="1.0" encoding="UTF-8" standalone="no"?>
<!DOCTYPE svg PUBLIC "-//W3C//DTD SVG 1.1//EN" "http://www.w3.org/Graphics/SVG/1.1/DTD/svg11.dtd">
<svg width="100%" height="100%" viewBox="0 0 241 231" version="1.1" xmlns="http://www.w3.org/2000/svg" xmlns:xlink="http://www.w3.org/1999/xlink" xml:space="preserve" xmlns:serif="http://www.serif.com/" style="fill-rule:evenodd;clip-rule:evenodd;stroke-linejoin:round;stroke-miterlimit:2;">
    <g transform="matrix(1,0,0,1,-377.059,-374)">
        <g>
            <path d="M596,566L538,566L538,560C538,553.929 533.071,549 527,549C520.929,549 516,553.929 516,560L516,594C516,600.071 520.929,605 527,605C533.071,605 538,600.071 538,594L538,588L596,588L596,594C596,600.071 600.929,605 607,605C613.071,605 618,600.071 618,594L618,560C618,553.929 613.071,549 607,549C600.929,549 596,553.929 596,560L596,566ZM556,513.584L542.992,505.017C537.921,501.678 531.094,503.083 527.755,508.154C524.416,513.224 525.821,520.051 530.891,523.39L560.787,543.08C561.106,543.297 561.435,543.497 561.772,543.679L561.797,543.692L561.858,543.725L561.92,543.757L561.935,543.765L561.994,543.796L562.044,543.821C562.33,543.966 562.623,544.099 562.922,544.218L562.968,544.236L563.031,544.261L563.093,544.285L563.156,544.309L563.219,544.332L563.283,544.355L563.346,544.378L563.41,544.4L563.474,544.422L563.538,544.443L563.602,544.464L563.666,544.485L563.693,544.493L563.73,544.505L563.758,544.514L563.795,544.525L563.823,544.533L563.86,544.545L563.888,544.553L563.925,544.564L563.953,544.572L563.99,544.582L564.018,544.59L564.055,544.601L564.083,544.608L564.148,544.626L564.213,544.643L564.278,544.66L564.344,544.677L564.409,544.693L564.474,544.708L564.54,544.723L564.606,544.738L564.671,544.753L564.737,544.767L564.785,544.777C565.101,544.841 565.419,544.892 565.737,544.928L565.793,544.934L565.859,544.941L565.925,544.948L565.945,544.95L566.015,544.956L566.084,544.962L566.125,544.966C566.414,544.988 566.706,545 567,545C567.294,545 567.586,544.988 567.875,544.966L567.916,544.962L567.985,544.956L568.055,544.95L568.124,544.943L568.141,544.941L568.207,544.934L568.263,544.928C568.582,544.892 568.899,544.841 569.215,544.777L569.263,544.767L569.329,544.753L569.394,544.738L569.46,544.723L569.526,544.708L569.591,544.693L569.656,544.677L569.722,544.66L569.787,544.643L569.852,544.626L569.917,544.608L569.982,544.59L570.01,544.582L570.047,544.572L570.075,544.564L570.112,544.553L570.14,544.545L570.177,544.533L570.205,544.525L570.242,544.514L570.27,544.505L570.307,544.493L570.334,544.485L570.371,544.473L570.398,544.464L570.462,544.443L570.526,544.422L570.59,544.4L570.654,544.378L570.717,544.355L570.781,544.332L570.844,544.309L570.907,544.285L570.969,544.261L571.032,544.236L571.078,544.218C571.377,544.099 571.67,543.966 571.956,543.821L572.006,543.796L572.065,543.765L572.124,543.734L572.142,543.725L572.203,543.692L572.228,543.679C572.565,543.497 572.894,543.297 573.213,543.08L603.109,523.39C608.179,520.051 609.584,513.224 606.245,508.154C602.906,503.083 596.079,501.678 591.008,505.017L578,513.584L578,484C578,477.929 573.071,473 567,473C560.929,473 556,477.929 556,484L556,513.584Z" style="fill:white;"/>
            <path d="M496,591.78C496,592.834 495.183,593.707 494.131,593.776C491.794,593.924 489.435,594 487.059,594C426.348,594 377.059,544.711 377.059,484C377.059,423.289 426.348,374 487.059,374C540.816,374 585.619,412.646 595.175,463.641C595.332,464.539 594.858,465.428 594.025,465.798C593.192,466.167 592.214,465.922 591.654,465.204C585.983,457.789 577.046,453 567,453C550.737,453 537.382,465.551 536.11,481.488C536.039,482.476 535.254,483.262 534.266,483.334C525.15,484.121 516.471,488.925 511.052,497.153C504.074,507.748 504.448,521.065 510.935,531.078C511.231,531.526 511.334,532.074 511.22,532.598C511.107,533.123 510.786,533.58 510.332,533.865C501.716,539.374 496,549.025 496,560L496,591.78ZM476.059,473L437.059,473C430.988,473 426.059,477.929 426.059,484C426.059,490.071 430.988,495 437.059,495L487.059,495C492.725,495 497.397,490.706 497.994,485.196L498.058,484.142L498.059,484L498.059,414C498.059,407.929 493.13,403 487.059,403C480.988,403 476.059,407.929 476.059,414L476.059,473Z" style="fill:white;"/>
        </g>
    </g>
</svg>
