<?xml version="1.0" encoding="UTF-8" standalone="no"?>
<!DOCTYPE svg PUBLIC "-//W3C//DTD SVG 1.1//EN" "http://www.w3.org/Graphics/SVG/1.1/DTD/svg11.dtd">
<svg width="100%" height="100%" viewBox="0 0 241 231" version="1.1" xmlns="http://www.w3.org/2000/svg" xmlns:xlink="http://www.w3.org/1999/xlink" xml:space="preserve" xmlns:serif="http://www.serif.com/" style="fill-rule:evenodd;clip-rule:evenodd;stroke-linejoin:round;stroke-miterlimit:2;">
    <g transform="matrix(1,0,0,1,-379.529,-384.5)">
        <g transform="matrix(1,0,0,1,2.4707,10.5)">
            <path d="M527,605L607,605C613.071,605 618,600.071 618,594C618,587.929 613.071,583 607,583L527,583C520.929,583 516,587.929 516,594C516,600.071 520.929,605 527,605ZM527,571L607,571C613.071,571 618,566.071 618,560C618,553.929 613.071,549 607,549L527,549C520.929,549 516,553.929 516,560C516,566.071 520.929,571 527,571Z" style="fill:white;"/>
            <path d="M496.071,591.891C496.013,592.893 495.217,593.696 494.215,593.763C491.849,593.923 489.463,594 487.059,594C426.348,594 377.059,544.711 377.059,484C377.059,423.289 426.348,374 487.059,374C547.769,374 597.059,423.289 597.059,484C597.059,499.564 593.819,514.377 587.977,527.803C587.659,528.53 586.94,528.999 586.147,528.999C577.356,529 527,529 527,529C509.891,529 496,542.891 496,560C496,565.835 497.616,571.295 500.427,575.954C500.822,576.595 500.822,577.404 500.427,578.045C497.957,582.139 496.41,586.85 496.071,591.891ZM476.059,473L437.059,473C430.988,473 426.059,477.929 426.059,484C426.059,490.071 430.988,495 437.059,495L487.059,495C492.725,495 497.397,490.706 497.994,485.196L498.058,484.142L498.059,484L498.059,414C498.059,407.929 493.13,403 487.059,403C480.988,403 476.059,407.929 476.059,414L476.059,473Z" style="fill:white;"/>
        </g>
    </g>
</svg>
