<?xml version="1.0" encoding="UTF-8" standalone="no"?>
<!DOCTYPE svg PUBLIC "-//W3C//DTD SVG 1.1//EN" "http://www.w3.org/Graphics/SVG/1.1/DTD/svg11.dtd">
<svg width="100%" height="100%" viewBox="0 0 246 252" version="1.1" xmlns="http://www.w3.org/2000/svg" xmlns:xlink="http://www.w3.org/1999/xlink" xml:space="preserve" xmlns:serif="http://www.serif.com/" style="fill-rule:evenodd;clip-rule:evenodd;stroke-linejoin:round;stroke-miterlimit:2;">
    <g transform="matrix(1,0,0,1,-377.059,-374)">
        <g transform="matrix(1,0,0,1,-22.8867,0)">
            <g transform="matrix(0.909099,0,0,0.909099,53.8227,45.4504)">
                <path d="M598.307,381.331L623.108,416C623.108,416 598.307,450.669 598.307,450.669C595.171,455.053 595.171,460.947 598.307,465.331L623.108,500C623.108,500 598.307,534.669 598.307,534.669C595.171,539.053 595.171,544.947 598.307,549.331L623.108,584C623.108,584 598.307,618.669 598.307,618.669C594.261,624.325 595.568,632.202 601.224,636.248C606.88,640.294 614.757,638.987 618.803,633.331L648.848,591.331C651.984,586.947 651.984,581.053 648.848,576.669L624.047,542C624.047,542 648.848,507.331 648.848,507.331C651.984,502.947 651.984,497.053 648.848,492.669L624.047,458C624.047,458 648.848,423.331 648.848,423.331C651.984,418.947 651.984,413.053 648.848,408.669L618.803,366.669C614.757,361.013 606.88,359.706 601.224,363.752C595.568,367.798 594.261,375.675 598.307,381.331Z" style="fill:white;"/>
            </g>
            <g transform="matrix(1.01587,0,0,1.01587,247.62,241.46)">
                <path d="M301.539,378.531C306.227,378.531 310.047,377.031 313,374.031C315.953,371.031 317.43,367.281 317.43,362.781L317.43,147.063C317.43,142.469 315.93,138.555 312.93,135.32C309.93,132.086 306.039,130.469 301.258,130.469C297.977,130.469 295.023,131.219 292.398,132.719C289.773,134.219 286.68,136.703 283.117,140.172L223.211,196.422C222.273,197.266 221.102,197.688 219.695,197.688L179.336,197.688C169.867,197.688 162.602,200.289 157.539,205.492C152.477,210.695 149.945,218.359 149.945,228.484L149.945,280.797C149.945,291.016 152.477,298.703 157.539,303.859C162.602,309.016 169.867,311.594 179.336,311.594L219.695,311.594C221.102,311.594 222.273,312.016 223.211,312.859L283.117,369.672C286.305,372.766 289.352,375.016 292.258,376.422C295.164,377.828 298.258,378.531 301.539,378.531Z" style="fill:white;fill-rule:nonzero;"/>
            </g>
        </g>
    </g>
</svg>
