<?xml version="1.0" encoding="UTF-8" standalone="no"?>
<!DOCTYPE svg PUBLIC "-//W3C//DTD SVG 1.1//EN" "http://www.w3.org/Graphics/SVG/1.1/DTD/svg11.dtd">
<svg width="100%" height="100%" viewBox="0 0 1000 1000" version="1.1" xmlns="http://www.w3.org/2000/svg" xmlns:xlink="http://www.w3.org/1999/xlink" xml:space="preserve" xmlns:serif="http://www.serif.com/" style="fill-rule:evenodd;clip-rule:evenodd;stroke-linejoin:round;stroke-miterlimit:2;">
    <g id="overtimeSession">
        <g>
            <path d="M619.011,500.5L590,500.5C585.772,500.5 581.917,502.924 580.086,506.735C578.254,510.546 578.769,515.07 581.41,518.372L621.41,568.372C623.498,570.981 626.658,572.5 630,572.5C633.342,572.5 636.502,570.981 638.59,568.372L678.59,518.372C681.231,515.07 681.746,510.546 679.914,506.735C678.083,502.924 674.228,500.5 670,500.5L640.989,500.5C640.996,500.334 641,500.168 641,500C641,422.18 577.82,359 500,359C422.18,359 359,422.18 359,500C359,577.82 422.18,641 500,641C541.839,641 579.448,622.74 605.28,593.758C609.319,589.225 608.919,582.266 604.387,578.227C599.855,574.187 592.895,574.588 588.856,579.12C567.054,603.582 535.314,619 500,619C434.322,619 381,565.678 381,500C381,434.322 434.322,381 500,381C565.678,381 619,434.322 619,500C619,500.168 619.004,500.334 619.011,500.5Z" style="fill:white;"/>
            <path d="M588.637,562.622C589.201,563.327 589.224,564.321 588.692,565.05C568.662,592.299 536.382,610 500,610C439.289,610 390,560.711 390,500C390,439.289 439.289,390 500,390C552.494,390 596.45,426.851 607.386,476.076C607.514,476.666 607.369,477.283 606.989,477.754C606.61,478.224 606.038,478.498 605.434,478.498C600.528,478.5 590,478.5 590,478.5C577.315,478.5 565.752,485.771 560.257,497.205C554.762,508.638 556.307,522.209 564.231,532.115C564.231,532.115 584.03,556.863 588.637,562.622ZM488.5,488.5L450,488.5C443.653,488.5 438.5,493.653 438.5,500C438.5,506.347 443.653,511.5 450,511.5L500,511.5C505.727,511.5 510.482,507.305 511.356,501.822L511.472,500.811L511.5,500L511.5,430C511.5,423.653 506.347,418.5 500,418.5C493.653,418.5 488.5,423.653 488.5,430L488.5,488.5Z" style="fill:white;"/>
        </g>
    </g>
</svg>
