<?xml version="1.0" encoding="UTF-8" standalone="no"?>
<!DOCTYPE svg PUBLIC "-//W3C//DTD SVG 1.1//EN" "http://www.w3.org/Graphics/SVG/1.1/DTD/svg11.dtd">
<svg width="100%" height="100%" viewBox="0 0 241 231" version="1.1" xmlns="http://www.w3.org/2000/svg" xmlns:xlink="http://www.w3.org/1999/xlink" xml:space="preserve" xmlns:serif="http://www.serif.com/" style="fill-rule:evenodd;clip-rule:evenodd;stroke-linejoin:round;stroke-miterlimit:2;">
    <g transform="matrix(1,0,0,1,-377.059,-374)">
        <g>
            <path d="M596,566L538,566L538,560C538,553.929 533.071,549 527,549C520.929,549 516,553.929 516,560L516,594C516,600.071 520.929,605 527,605C533.071,605 538,600.071 538,594L538,588L596,588L596,594C596,600.071 600.929,605 607,605C613.071,605 618,600.071 618,594L618,560C618,553.929 613.071,549 607,549C600.929,549 596,553.929 596,560L596,566ZM556,513.584L542.992,505.017C537.921,501.678 531.094,503.083 527.755,508.154C524.416,513.224 525.821,520.051 530.891,523.39L560.787,543.08C561.106,543.297 561.435,543.497 561.772,543.679L561.797,543.692L561.858,543.725L561.92,543.757L561.935,543.765L561.994,543.796L562.044,543.821C562.33,543.966 562.623,544.099 562.922,544.218L562.968,544.236L563.031,544.261L563.093,544.285L563.156,544.309L563.219,544.332L563.283,544.355L563.346,544.378L563.41,544.4L563.474,544.422L563.538,544.443L563.602,544.464L563.666,544.485L563.693,544.493L563.73,544.505L563.758,544.514L563.795,544.525L563.823,544.533L563.86,544.545L563.888,544.553L563.925,544.564L563.953,544.572L563.99,544.582L564.018,544.59L564.055,544.601L564.083,544.608L564.148,544.626L564.213,544.643L564.278,544.66L564.344,544.677L564.409,544.693L564.474,544.708L564.54,544.723L564.606,544.738L564.671,544.753L564.737,544.767L564.785,544.777C565.101,544.841 565.419,544.892 565.737,544.928L565.793,544.934L565.859,544.941L565.925,544.948L565.945,544.95L566.015,544.956L566.084,544.962L566.125,544.966C566.414,544.988 566.706,545 567,545C567.294,545 567.586,544.988 567.875,544.966L567.916,544.962L567.985,544.956L568.055,544.95L568.124,544.943L568.141,544.941L568.207,544.934L568.263,544.928C568.582,544.892 568.899,544.841 569.215,544.777L569.263,544.767L569.329,544.753L569.394,544.738L569.46,544.723L569.526,544.708L569.591,544.693L569.656,544.677L569.722,544.66L569.787,544.643L569.852,544.626L569.917,544.608L569.982,544.59L570.01,544.582L570.047,544.572L570.075,544.564L570.112,544.553L570.14,544.545L570.177,544.533L570.205,544.525L570.242,544.514L570.27,544.505L570.307,544.493L570.334,544.485L570.371,544.473L570.398,544.464L570.462,544.443L570.526,544.422L570.59,544.4L570.654,544.378L570.717,544.355L570.781,544.332L570.844,544.309L570.907,544.285L570.969,544.261L571.032,544.236L571.078,544.218C571.377,544.099 571.67,543.966 571.956,543.821L572.006,543.796L572.065,543.765L572.124,543.734L572.142,543.725L572.203,543.692L572.228,543.679C572.565,543.497 572.894,543.297 573.213,543.08L603.109,523.39C608.179,520.051 609.584,513.224 606.245,508.154C602.906,503.083 596.079,501.678 591.008,505.017L578,513.584L578,484C578,477.929 573.071,473 567,473C560.929,473 556,477.929 556,484L556,513.584Z" style="fill:white;"/>
            <path d="M492,594C493.105,594 494,593.105 494,592C494,586.545 494,571.455 494,566C494,564.895 493.105,564 492,564C477.341,564 387.059,564 387.059,564C381.536,564 377.059,568.477 377.059,574L377.059,584C377.059,589.523 381.536,594 387.059,594L492,594ZM494.873,552.435C494.669,553.344 493.862,553.991 492.93,553.991C483.605,554 437.059,554 437.059,554C421.146,554 405.884,547.679 394.632,536.426C383.38,525.174 377.059,509.913 377.059,494L377.059,394C377.059,388.696 379.166,383.609 382.916,379.858C386.667,376.107 391.754,374 397.059,374L537.059,374C542.363,374 547.45,376.107 551.201,379.858C554.951,383.609 557.059,388.696 557.059,394L557.059,408C557.059,409.105 557.954,410 559.059,410C561.988,410 567.1,410 567.1,410C583.669,410 597.1,423.431 597.1,440C597.1,440 597.099,454.235 597.098,463.244C597.089,464.112 596.522,464.875 595.694,465.133C594.866,465.391 593.965,465.086 593.465,464.378C589.716,459.248 584.49,455.276 578.428,453.036C577.636,452.752 577.108,452.001 577.108,451.16C577.1,447.872 577.1,440 577.1,440C577.1,434.477 572.623,430 567.1,430C567.1,430 561.988,430 559.059,430C558.528,430 558.019,430.211 557.644,430.586C557.269,430.961 557.059,431.47 557.059,432C557.059,436.478 557.059,447.219 557.059,451.099C557.058,451.945 556.526,452.699 555.728,452.982C544.332,457.126 535.859,467.379 534.278,479.774C534.169,480.686 533.451,481.405 532.539,481.516C523.409,482.739 514.841,487.763 509.381,496.053C502.313,506.786 502.331,520.143 508.305,530.595C508.826,531.491 508.575,532.637 507.726,533.232C501.375,537.803 496.718,544.58 494.873,552.435Z" style="fill:white;"/>
            <clipPath id="_clip1">
                <path d="M492,594C493.105,594 494,593.105 494,592C494,586.545 494,571.455 494,566C494,564.895 493.105,564 492,564C477.341,564 387.059,564 387.059,564C381.536,564 377.059,568.477 377.059,574L377.059,584C377.059,589.523 381.536,594 387.059,594L492,594ZM494.873,552.435C494.669,553.344 493.862,553.991 492.93,553.991C483.605,554 437.059,554 437.059,554C421.146,554 405.884,547.679 394.632,536.426C383.38,525.174 377.059,509.913 377.059,494L377.059,394C377.059,388.696 379.166,383.609 382.916,379.858C386.667,376.107 391.754,374 397.059,374L537.059,374C542.363,374 547.45,376.107 551.201,379.858C554.951,383.609 557.059,388.696 557.059,394L557.059,408C557.059,409.105 557.954,410 559.059,410C561.988,410 567.1,410 567.1,410C583.669,410 597.1,423.431 597.1,440C597.1,440 597.099,454.235 597.098,463.244C597.089,464.112 596.522,464.875 595.694,465.133C594.866,465.391 593.965,465.086 593.465,464.378C589.716,459.248 584.49,455.276 578.428,453.036C577.636,452.752 577.108,452.001 577.108,451.16C577.1,447.872 577.1,440 577.1,440C577.1,434.477 572.623,430 567.1,430C567.1,430 561.988,430 559.059,430C558.528,430 558.019,430.211 557.644,430.586C557.269,430.961 557.059,431.47 557.059,432C557.059,436.478 557.059,447.219 557.059,451.099C557.058,451.945 556.526,452.699 555.728,452.982C544.332,457.126 535.859,467.379 534.278,479.774C534.169,480.686 533.451,481.405 532.539,481.516C523.409,482.739 514.841,487.763 509.381,496.053C502.313,506.786 502.331,520.143 508.305,530.595C508.826,531.491 508.575,532.637 507.726,533.232C501.375,537.803 496.718,544.58 494.873,552.435Z"/>
            </clipPath>
            <g clip-path="url(#_clip1)">
                <g transform="matrix(1,0,0,0.842696,0,97.1464)">
                    <path d="M557.059,565.867C557.059,559.313 552.581,554 547.059,554L387.059,554C381.536,554 377.059,559.313 377.059,565.867L377.059,577.733C377.059,584.287 381.536,589.6 387.059,589.6L547.059,589.6C552.581,589.6 557.059,584.287 557.059,577.733L557.059,565.867Z" style="fill:white;"/>
                </g>
                <path d="M556.758,500L567.1,500C583.669,500 597.1,486.569 597.1,470L597.1,440C597.1,423.431 583.669,410 567.1,410L557.059,410L557.059,394C557.059,388.696 554.951,383.609 551.201,379.858C547.45,376.107 542.363,374 537.059,374L397.059,374C391.754,374 386.667,376.107 382.916,379.858C379.166,383.609 377.059,388.696 377.059,394L377.059,494C377.059,509.913 383.38,525.174 394.632,536.426C405.884,547.679 421.146,554 437.059,554L497.059,554C512.972,554 528.233,547.679 539.485,536.426C549.314,526.598 555.38,513.71 556.758,500ZM557.059,430L567.1,430C572.623,430 577.1,434.477 577.1,440L577.1,470C577.1,475.523 572.623,480 567.1,480L557.059,480L557.059,430Z" style="fill:white;"/>
            </g>
        </g>
    </g>
</svg>
