<?xml version="1.0" encoding="UTF-8" standalone="no"?>
<!DOCTYPE svg PUBLIC "-//W3C//DTD SVG 1.1//EN" "http://www.w3.org/Graphics/SVG/1.1/DTD/svg11.dtd">
<svg width="100%" height="100%" viewBox="0 0 1000 1000" version="1.1" xmlns="http://www.w3.org/2000/svg" xmlns:xlink="http://www.w3.org/1999/xlink" xml:space="preserve" xmlns:serif="http://www.serif.com/" style="fill-rule:evenodd;clip-rule:evenodd;stroke-linejoin:round;stroke-miterlimit:2;">
    <g id="BG" transform="matrix(0.958776,0,0,0.958776,-384.967,-37.794)">
        <rect x="610.119" y="248.018" width="625.798" height="625.798" style="fill:url(#_Linear1);"/>
    </g>
    <path id="CameraIcon" d="M450,380C532.787,380 600,447.213 600,530C600,612.787 532.787,680 450,680C367.213,680 300,612.787 300,530C300,447.213 367.213,380 450,380ZM450,388C371.628,388 308,451.628 308,530C308,608.372 371.628,672 450,672C528.372,672 592,608.372 592,530C592,451.628 528.372,388 450,388ZM450,392C526.164,392 588,453.836 588,530C588,606.164 526.164,668 450,668C373.836,668 312,606.164 312,530C312,453.836 373.836,392 450,392ZM450,580C472.077,580 490,597.923 490,620C490,642.077 472.077,660 450,660C427.923,660 410,642.077 410,620C410,597.923 427.923,580 450,580ZM651.238,424.934C648.726,420.184 650.421,414.299 655.074,411.612C655.936,411.103 656.818,410.594 657.688,410.091C660.039,408.734 662.841,408.39 665.451,409.14C668.06,409.89 670.252,411.669 671.524,414.067C689.707,448.737 700,488.176 700,530C700,571.824 689.707,611.263 671.515,645.928C670.244,648.324 668.054,650.101 665.448,650.85C662.841,651.599 660.042,651.256 657.693,649.9C656.818,649.406 655.936,648.897 655.069,648.397C650.411,645.707 648.715,639.816 651.229,635.062C667.693,603.638 677,567.897 677,530C677,492.103 667.693,456.362 651.238,424.934ZM634.283,423.604C636.643,422.242 639.456,421.901 642.072,422.661C644.688,423.42 646.882,425.215 648.144,427.629C664.024,458.302 673,493.111 673,530C673,566.889 664.024,601.698 648.134,632.366C646.873,634.777 644.682,636.569 642.069,637.328C639.455,638.087 636.646,637.747 634.289,636.386C624.979,631.024 610.444,622.633 601.307,617.357C596.703,614.699 594.984,608.902 597.394,604.163C608.661,581.863 615,556.666 615,530C615,503.334 608.661,478.137 597.405,455.831C594.998,451.098 596.715,445.309 601.313,442.655C610.444,437.367 624.979,428.976 634.283,423.604ZM337.417,595C326.378,575.881 332.939,551.397 352.058,540.359C371.177,529.321 395.66,535.881 406.699,555C417.737,574.119 411.177,598.603 392.058,609.641C372.939,620.679 348.455,614.119 337.417,595ZM487.625,503.081C489.68,501.894 490.618,499.425 489.868,497.172C484.216,479.645 491.35,459.939 507.942,450.359C527.061,439.321 551.545,445.881 562.583,465C573.622,484.119 567.061,508.603 547.942,519.641C531.35,529.221 510.716,525.545 498.338,511.91C496.773,510.146 494.184,509.727 492.142,510.906C488.985,512.688 484.484,515.287 481.399,517.068C479.45,518.193 478.494,520.482 479.062,522.66C479.685,525.004 480,527.465 480,530C480,532.535 479.685,534.996 479.092,537.348C478.527,539.512 479.478,541.786 481.415,542.905C484.484,544.713 488.985,547.312 492.125,549.125C494.181,550.311 496.788,549.889 498.364,548.113C510.716,534.455 531.35,530.779 547.942,540.359C567.061,551.397 573.622,575.881 562.583,595C551.545,614.119 527.061,620.679 507.942,609.641C491.35,600.061 484.216,580.355 489.836,562.817C490.58,560.58 489.649,558.128 487.607,556.949C484.485,555.106 479.984,552.507 476.898,550.725C474.955,549.605 472.504,549.914 470.901,551.482C465.512,556.758 458.131,560 450,560C433.443,560 420,546.557 420,530C420,513.443 433.443,500 450,500C458.131,500 465.512,503.242 470.916,508.502C472.512,510.064 474.953,510.372 476.886,509.255C479.984,507.493 484.485,504.894 487.625,503.081ZM432.5,560.311C434.89,561.691 435.71,564.751 434.33,567.141C432.95,569.531 429.89,570.351 427.5,568.971C425.11,567.591 424.29,564.531 425.67,562.141C427.05,559.751 430.11,558.931 432.5,560.311ZM467.5,560.311C469.89,558.931 472.95,559.751 474.33,562.141C475.71,564.531 474.89,567.591 472.5,568.971C470.11,570.351 467.05,569.531 465.67,567.141C464.29,564.751 465.11,561.691 467.5,560.311ZM460.498,541.257C462.077,542.168 463.035,543.867 462.998,545.69C462.961,547.512 461.934,549.17 460.319,550.017C457.221,551.598 453.715,552.5 450,552.5C437.582,552.5 427.5,542.418 427.5,530C427.5,517.582 437.582,507.5 450,507.5C453.715,507.5 457.221,508.402 460.311,510C461.92,510.843 462.942,512.495 462.979,514.311C463.016,516.127 462.062,517.819 460.489,518.727C460.491,518.747 460.484,518.751 460.477,518.755C459.009,519.602 457.213,519.648 455.705,518.878C453.995,517.997 452.055,517.5 450,517.5C443.101,517.5 437.5,523.101 437.5,530C437.5,536.899 443.101,542.5 450,542.5C452.055,542.5 453.995,542.003 455.705,541.123C457.214,540.354 459.009,540.4 460.476,541.247C460.484,541.249 460.491,541.253 460.498,541.257ZM485,530C485,527.24 487.24,525 490,525C492.76,525 495,527.24 495,530C495,532.76 492.76,535 490,535C487.24,535 485,532.76 485,530ZM405,530C405,527.24 407.24,525 410,525C412.76,525 415,527.24 415,530C415,532.76 412.76,535 410,535C407.24,535 405,532.76 405,530ZM465.753,526.101C467.145,525.298 468.859,525.297 470.251,526.101C471.643,526.904 472.5,528.389 472.5,529.996C472.5,529.997 472.5,529.999 472.5,530C472.5,530.001 472.5,530.003 472.5,530.004C472.5,531.611 471.642,533.096 470.251,533.899C468.859,534.702 467.145,534.702 465.753,533.899C465.219,533.59 464.707,533.295 464.249,533.031C463.167,532.406 462.5,531.251 462.5,530.001C462.5,530.001 462.5,530 462.5,530C462.5,530 462.5,529.999 462.5,529.999C462.5,528.749 463.167,527.594 464.249,526.969C464.707,526.705 465.219,526.41 465.753,526.101ZM337.417,465C348.455,445.881 372.939,439.321 392.058,450.359C411.177,461.397 417.737,485.881 406.699,505C395.66,524.119 371.177,530.679 352.058,519.641C332.939,508.603 326.378,484.119 337.417,465ZM472.5,491.029C474.89,492.409 475.71,495.469 474.33,497.859C472.95,500.249 469.89,501.069 467.5,499.689C465.11,498.309 464.29,495.249 465.67,492.859C467.05,490.469 470.11,489.649 472.5,491.029ZM427.5,491.029C429.89,489.649 432.95,490.469 434.33,492.859C435.71,495.249 434.89,498.309 432.5,499.689C430.11,501.069 427.05,500.249 425.67,497.859C424.29,495.469 425.11,492.409 427.5,491.029ZM450,400C472.077,400 490,417.923 490,440C490,462.077 472.077,480 450,480C427.923,480 410,462.077 410,440C410,417.923 427.923,400 450,400ZM485.235,363.663C482.044,363.005 479.376,360.83 478.088,357.838C476.799,354.846 477.054,351.413 478.768,348.643C489.379,331.482 508.359,320 530,320C563.115,320 590,346.885 590,380C590,388.996 588.016,397.531 584.462,405.194C583.088,408.13 580.375,410.217 577.186,410.793C573.996,411.369 570.724,410.363 568.41,408.093C545.837,386.137 517.185,370.409 485.235,363.663ZM331.577,408.08C329.267,410.345 326.002,411.35 322.818,410.775C319.634,410.2 316.926,408.116 315.555,405.186C311.984,397.531 310,388.995 310,380C310,346.885 336.885,320 370,320C391.641,320 410.621,331.482 421.175,348.678C422.878,351.43 423.131,354.84 421.851,357.812C420.572,360.784 417.921,362.944 414.752,363.598C382.813,370.41 354.16,386.14 331.577,408.08Z" style="fill:white;"/>
    <defs>
        <linearGradient id="_Linear1" x1="0" y1="0" x2="1" y2="0" gradientUnits="userSpaceOnUse" gradientTransform="matrix(3.83191e-14,625.798,-625.798,3.83191e-14,923.018,248.018)"><stop offset="0" style="stop-color:rgb(93,92,230);stop-opacity:1"/><stop offset="1" style="stop-color:rgb(33,33,62);stop-opacity:1"/></linearGradient>
    </defs>
</svg>
